<svg xmlns="http://www.w3.org/2000/svg" xmlns:xlink="http://www.w3.org/1999/xlink" viewBox="0 0 228.19 52.69"><defs><style>.cls-1{fill:#fff;}.cls-2{fill:url(#linear-gradient);}.cls-3{fill:url(#linear-gradient-2);}</style><linearGradient id="linear-gradient" x1="15.51" y1="15.64" x2="37.55" y2="15.64" gradientUnits="userSpaceOnUse"><stop offset="0.01" stop-color="#0c9"/><stop offset="0.04" stop-color="#07c5a0"/><stop offset="0.22" stop-color="#29a3c2"/><stop offset="0.41" stop-color="#48d"/><stop offset="0.6" stop-color="#5775f0"/><stop offset="0.79" stop-color="#626afb"/><stop offset="1" stop-color="#66f"/></linearGradient><linearGradient id="linear-gradient-2" x1="0" y1="35.17" x2="67.21" y2="35.17" xlink:href="#linear-gradient"/></defs><g id="Layer_2" data-name="Layer 2"><g id="Layer_1-2" data-name="Layer 1"><path class="cls-1" d="M79.73,20c-1.87-1.8-2.8-4.32-2.8-7.58V.5h7.33V12.24a5.67,5.67,0,0,0,.85,3.48,3.36,3.36,0,0,0,4.94,0,5.67,5.67,0,0,0,.86-3.48V.5h7.2v12c0,3.26-.93,5.78-2.79,7.58s-4.46,2.71-7.8,2.71S81.59,21.83,79.73,20ZM123.67.5V22.24h-6l-8.26-9.88v9.88h-7.15V.5h6l8.26,9.87V.5ZM128,.5h7.33V22.24H128Zm34.88,0-9.19,21.74h-7.21L137.28.5h7.89l5.18,12.7L155.66.5Zm19.57,16.21v5.53H164.36V.5H182V6H171.57V8.57h9.19v5.28h-9.19v2.86Zm12.92.06h-2v5.47H186V.5h10.47a12.87,12.87,0,0,1,5.25,1,7.68,7.68,0,0,1,3.44,2.86,7.78,7.78,0,0,1,1.22,4.35,7.74,7.74,0,0,1-1.06,4.07,7.42,7.42,0,0,1-3,2.76l4.56,6.71h-7.83Zm2.92-9.95A3.24,3.24,0,0,0,196,6.15h-2.67v5.09H196a3.29,3.29,0,0,0,2.24-.66A2.43,2.43,0,0,0,199,8.7,2.4,2.4,0,0,0,198.28,6.82ZM212.8,22.13a14.12,14.12,0,0,1-4.21-1.63L211,15.16a15,15,0,0,0,3.48,1.44,13.62,13.62,0,0,0,3.69.54,5.72,5.72,0,0,0,2.18-.29A1,1,0,0,0,221,16c0-.45-.28-.79-.85-1a18.23,18.23,0,0,0-2.81-.75,32.31,32.31,0,0,1-4.2-1.13,7.13,7.13,0,0,1-2.92-2,5.43,5.43,0,0,1-1.24-3.74,6.43,6.43,0,0,1,1.15-3.73A7.59,7.59,0,0,1,213.51,1a14.3,14.3,0,0,1,5.55-1,20.15,20.15,0,0,1,4.39.48,13.83,13.83,0,0,1,3.81,1.41l-2.21,5.32A13.44,13.44,0,0,0,219,5.59c-1.88,0-2.82.46-2.82,1.37,0,.43.28.76.84,1a17.93,17.93,0,0,0,2.76.69A28.61,28.61,0,0,1,224,9.71a7.28,7.28,0,0,1,3,2,5.28,5.28,0,0,1,1.26,3.73A6.44,6.44,0,0,1,227,19.12a7.8,7.8,0,0,1-3.43,2.64,14.13,14.13,0,0,1-5.55,1A23,23,0,0,1,212.8,22.13Zm-129.89,29a11.26,11.26,0,0,1-4.39-4.27,12.55,12.55,0,0,1,0-12.23,11.18,11.18,0,0,1,4.41-4.27,13.63,13.63,0,0,1,11.13-.67,10.1,10.1,0,0,1,3.75,2.54l-1.58,1.58A9.31,9.31,0,0,0,89.3,31a10.17,10.17,0,0,0-5.06,1.27,9.33,9.33,0,0,0-3.57,3.48,10.18,10.18,0,0,0,0,9.92,9.28,9.28,0,0,0,3.57,3.49,10.17,10.17,0,0,0,5.06,1.27,9.23,9.23,0,0,0,6.93-2.81l1.58,1.57A10.16,10.16,0,0,1,94,51.8a13,13,0,0,1-4.84.89A12.8,12.8,0,0,1,82.91,51.14Zm36-4.92H105.82L103,52.48h-2.58L111.15,29h2.44l10.73,23.45H121.7Zm-.91-2-5.63-12.6-5.63,12.6Zm27.72-13a7.3,7.3,0,0,1,2.55,5.9A7.25,7.25,0,0,1,145.7,43a10.66,10.66,0,0,1-7,2.13h-6.3v7.4h-2.48V29h8.78A10.61,10.61,0,0,1,145.7,31.17Zm-1.78,10.2a5.26,5.26,0,0,0,1.85-4.3,5.37,5.37,0,0,0-1.85-4.38,8.2,8.2,0,0,0-5.33-1.52h-6.23V42.9h6.23A8.14,8.14,0,0,0,143.92,41.37ZM155.28,29h2.48V52.48h-2.48Zm16.36,2.14h-8.25V29h19v2.14h-8.24V52.48h-2.48Zm29.89,15H188.46l-2.81,6.26h-2.59L193.79,29h2.45L207,52.48h-2.61Zm-.9-2L195,31.61l-5.64,12.6ZM212.52,29H215V50.34h13.14v2.14H212.52Z"/><polygon class="cls-2" points="37.55 0.52 15.56 13.3 15.51 30.76 37.5 17.98 37.55 0.52"/><path class="cls-3" d="M0,39.73A42.63,42.63,0,0,0,21,51.9a33.18,33.18,0,0,0,22.68-3L67.21,35.17V17.65L43.63,31.34a33.18,33.18,0,0,1-22.68,3A42.63,42.63,0,0,1,0,22.21Z"/></g></g></svg>