<svg width="476" height="110" viewBox="0 0 476 110" fill="none" xmlns="http://www.w3.org/2000/svg">
<g clip-path="url(#clip0_87_23)">
<path d="M166.307 41.8243C162.406 38.0655 160.455 32.7919 160.455 26.0035V1.03918H175.745V25.551C175.745 28.8657 176.34 31.287 177.529 32.8151C178.718 34.3431 180.435 35.0989 182.68 35.0823C184.926 35.0823 186.643 34.3266 187.832 32.8151C189.021 31.3036 189.615 28.8822 189.615 25.551V1.03918H204.667V26.0035C204.667 32.7919 202.725 38.0655 198.84 41.8243C194.955 45.5831 189.532 47.4642 182.571 47.4675C175.616 47.4675 170.195 45.5864 166.307 41.8243Z" fill="white"/>
<path d="M257.985 1.03918V46.4284H245.402L228.184 25.8096V46.4284H213.281V1.03918H225.849L243.087 21.658V1.03918H257.985Z" fill="white"/>
<path d="M266.991 1.03918H282.282V46.4284H266.991V1.03918Z" fill="white"/>
<path d="M339.748 1.03918L320.572 46.4284H305.54L286.365 1.03918H302.818L313.638 27.5597L324.72 1.03918H339.748Z" fill="white"/>
<path d="M380.567 34.8884V46.4284H342.857V1.03918H379.727V12.5791H357.87V17.8992H377.05V28.922H357.89V34.8884H380.567Z" fill="white"/>
<path d="M407.521 35.0177H403.373V46.4284H388.083V1.03918H409.916C414.109 1.03918 417.751 1.73029 420.845 3.1125C423.778 4.34705 426.281 6.42304 428.038 9.07887C429.756 11.7896 430.636 14.9482 430.566 18.1577C430.636 21.1388 429.872 24.0799 428.361 26.6498C426.828 29.1327 424.628 31.1333 422.012 32.4223L431.535 46.4284H415.231L407.521 35.0177ZM413.612 14.2348C412.572 13.3067 411.017 12.841 408.947 12.8377H403.373V23.4727H408.947C411.017 23.4727 412.572 23.0087 413.612 22.0806C414.141 21.5794 414.554 20.9687 414.822 20.2911C415.091 19.6135 415.208 18.8854 415.167 18.1577C415.208 17.4299 415.091 16.7018 414.822 16.0243C414.554 15.3467 414.141 14.736 413.612 14.2348V14.2348Z" fill="white"/>
<path d="M443.899 46.2046C440.809 45.5477 437.846 44.3978 435.121 42.7988L440.044 31.6467C442.327 32.9517 444.766 33.964 447.302 34.6597C449.815 35.3946 452.418 35.7777 455.036 35.7983C457.153 35.7983 458.664 35.5928 459.572 35.1817C460.476 34.774 460.933 34.1575 460.933 33.3371C460.933 32.3858 460.339 31.6715 459.15 31.1942C457.239 30.5254 455.279 30.0051 453.288 29.638C450.321 29.0528 447.397 28.262 444.54 27.2713C442.194 26.4227 440.1 24.9966 438.449 23.1247C436.721 21.2022 435.856 18.5969 435.856 15.3087C435.832 12.5289 436.67 9.81011 438.256 7.5276C439.839 5.18746 442.217 3.3412 445.389 1.98882C448.562 0.636445 452.417 -0.0264847 456.954 3.24975e-05C460.038 -0.00674889 463.113 0.32673 466.124 0.994428C468.905 1.58016 471.583 2.57543 474.072 3.94778L469.443 15.0452C464.998 12.7979 460.787 11.6742 456.81 11.6742C452.832 11.6742 450.867 12.6239 450.913 14.5232C450.913 15.4314 451.496 16.1125 452.662 16.5667C454.542 17.208 456.471 17.6968 458.429 18.0284C461.398 18.5488 464.323 19.2968 467.177 20.2658C469.551 21.0957 471.682 22.5036 473.377 24.3627C475.126 26.2653 476 28.859 476 32.1439C476.025 34.9138 475.188 37.6229 473.605 39.8952C472.006 42.2154 469.62 44.0517 466.447 45.4041C463.274 46.7565 459.42 47.4377 454.882 47.4476C451.186 47.4605 447.5 47.0434 443.899 46.2046V46.2046Z" fill="white"/>
<path d="M172.953 106.778C169.137 104.708 165.968 101.621 163.798 97.8585C161.619 93.9556 160.475 89.559 160.475 85.088C160.475 80.6169 161.619 76.2204 163.798 72.3174C165.977 68.55 169.159 65.4621 172.988 63.3977C177.023 61.2171 181.547 60.103 186.133 60.161C189.582 60.1295 193.005 60.7538 196.222 62.0006C199.203 63.1499 201.882 64.9682 204.051 67.3156L200.742 70.6021C196.924 66.7306 192.105 64.7965 186.287 64.7998C182.597 64.7542 178.96 65.6692 175.73 67.4549C172.631 69.1572 170.055 71.674 168.279 74.7338C166.513 77.8987 165.587 81.4632 165.587 85.088C165.587 88.7127 166.513 92.2772 168.279 95.4421C170.053 98.5035 172.629 101.021 175.73 102.721C178.956 104.519 182.594 105.445 186.287 105.406C192.158 105.406 196.982 103.447 200.757 99.5291L204.046 102.816C201.863 105.172 199.174 107.003 196.182 108.17C192.963 109.427 189.533 110.057 186.078 110.025C181.497 110.088 176.977 108.97 172.953 106.778V106.778Z" fill="white"/>
<path d="M248.005 96.4961H220.737L214.865 109.577H209.48L231.835 60.5984H236.957L259.311 109.577H253.847L248.005 96.4961ZM246.117 92.2948L234.368 65.9881L222.625 92.2948H246.117Z" fill="white"/>
<path d="M303.931 65.0782C307.468 68.0614 309.238 72.1666 309.241 77.3938C309.244 82.621 307.474 86.7129 303.931 89.6696C300.384 92.6329 295.489 94.1145 289.246 94.1145H276.107V109.577H270.931V60.5984H289.246C295.492 60.5984 300.387 62.0917 303.931 65.0782ZM300.225 86.3831C302.788 84.2584 304.07 81.262 304.07 77.3938C304.07 73.4162 302.788 70.3717 300.225 68.2603C297.662 66.1488 293.959 65.0881 289.117 65.0782H276.107V89.5652H289.117C293.959 89.5652 297.662 88.5045 300.225 86.3831V86.3831Z" fill="white"/>
<path d="M323.921 60.5984H329.097V109.577H323.921V60.5984Z" fill="white"/>
<path d="M358.038 65.0782H340.84V60.6035H380.407V65.0782H363.209V109.577H358.038V65.0782Z" fill="white"/>
<path d="M420.392 96.4961H393.13L387.258 109.577H381.873L404.227 60.5984H409.334L431.689 109.577H426.224L420.392 96.4961ZM418.505 92.2948L406.761 65.9881L395.017 92.2948H418.505Z" fill="white"/>
<path d="M443.323 60.5984H448.495V105.098H475.901V109.572H443.323V60.5984Z" fill="white"/>
<path d="M78.325 1.09387L32.4637 27.7685L32.3594 64.2181L78.2207 37.5434L78.325 1.09387Z" fill="white"/>
<path d="M0 82.9525C0 82.9525 16.8403 102.343 43.7153 108.354C70.5903 114.365 91.0172 102 91.0172 102L140.197 73.4261V36.8523L91.0172 65.4312C91.0172 65.4312 70.5406 77.7816 43.7153 71.7804C16.89 65.7792 0 46.3786 0 46.3786V82.9525Z" fill="white"/>
</g>
<defs>
<clipPath id="clip0_87_23">
<rect width="476" height="110" fill="white"/>
</clipPath>
</defs>
</svg>
